<?xml version="1.0" encoding="utf-8"?>
<!-- Generator: Adobe Illustrator 19.2.1, SVG Export Plug-In . SVG Version: 6.00 Build 0)  -->
<svg version="1.1" id="Layer_1" xmlns="http://www.w3.org/2000/svg" xmlns:xlink="http://www.w3.org/1999/xlink" x="0px" y="0px"
	 viewBox="0 0 427.8 171.1" style="enable-background:new 0 0 427.8 171.1;" xml:space="preserve">
<style type="text/css">
	.Arched_x0020_Green{fill:url(#SVGID_1_);stroke:#FFFFFF;stroke-width:0.25;stroke-miterlimit:1;}
	.st0{fill:#5EBD71;stroke:#36495E;stroke-width:1.6308;}
	.st1{fill:#35495E;}
	.st2{fill:#36495E;}
	.st3{fill:none;stroke:#36495E;stroke-width:2.4744;}
	.st4{fill:none;stroke:#36495E;stroke-width:2.4081;}
	.st5{fill:#37495E;}
</style>
<linearGradient id="SVGID_1_" gradientUnits="userSpaceOnUse" x1="-113.8219" y1="386.8125" x2="-113.1148" y2="386.1054">
	<stop  offset="0" style="stop-color:#20AC4B"/>
	<stop  offset="0.9831" style="stop-color:#19361A"/>
</linearGradient>
<g>
	<g>
		<g>
			<path class="st0" d="M32.1,48.4c0,4.6,0.8,5.1,2.5,5.1c2.9,0,8.5-5.3,10.7-8.1c7.4-8.9,14.2-17.1,18.6-23.6
				c1.3-1.8,1.8-3.1,1.8-3.6c0-0.6-0.6-1.5-2.4-1.8l-3.2-0.6c-1.5-1-1.3-4.3,0.6-4.9c7.1,0.3,12.2,0.4,17.2,0.4
				c5.1,0,11.3-0.1,16.8-0.4c1.7,0.6,1.8,3.8,0.7,4.9c-4.9,0.6-9,1.3-12,2.5C78,20.6,72,25.9,62.9,36.1l-6.4,7.2
				c-1.4,1.5-1.8,2.6-1.8,3.2c0,0.7,0.8,2.4,5,8.6C66.7,65.6,74.9,79,84.4,91.5c3.8,5,6.4,6,10.3,6.5l4.4,0.7
				c0.8,1.3,0.8,4.2-0.4,4.9c-7-0.3-13.6-0.4-20-0.4c-7.1,0-14,0.1-21.8,0.4c-1.8-0.6-1.8-4-0.3-4.9l3.5-0.8
				c1.5-0.4,2.4-0.8,2.4-1.4c0-0.6-0.3-1.5-1.1-2.8c-0.8-1.3-6.7-10.3-8.1-12.4l-7.4-11.3c-5-7.6-7.4-11-10.4-11
				c-3.2,0-3.3,1.9-3.3,9.4V130c0,12.9,0.8,14.2,7.1,15l3.9,0.6c1.1,1,1.1,4,0,4.9c-7.4-0.3-14.3-0.4-21-0.4
				c-6.3,0-13.5,0.1-20.9,0.4c-1.1-0.8-1.1-4,0-4.9l3.9-0.6c6.3-0.8,7.1-2.1,7.1-15V31.4c0-12.9-0.8-14.2-7.1-15l-3.9-0.6
				c-1.5-0.8-1.5-4,0-4.9c7,0.3,13.9,0.4,20.9,0.4c6.7,0,13.6-0.1,21-0.4c1.3,0.8,1.3,4,0,4.9l-3.9,0.6c-6.3,0.8-7.1,2.1-7.1,15
				V48.4z"/>
			<path class="st0" d="M141.5,47.5c0,3.9,0.1,4.2,3.9,4.2h9.6c7.2,0,8.9-1,10.3-7.6l0.7-3.5c1-1.1,4.4-1.1,5.1,0.1
				c-0.3,4.4-0.4,9.5-0.4,14.7c0,5.3,0.1,10.3,0.4,14.7c-0.7,1.3-4.2,1.4-5.1,0.1l-0.7-3.5c-1.4-6.7-3.1-7.8-10.3-7.8h-9.6
				c-3.8,0-3.9,0.1-3.9,4.3v16.5c0,6.4,0.6,10.8,2.2,13.2c1.8,2.5,4.4,3.6,14.6,3.6c12.1,0,16.8-0.4,24.5-16.1
				c1.1-1.5,4.6-1,5.1,0.7c-0.6,7.2-3.9,18.5-5.8,22.2c-7.4-0.3-20.7-0.4-32.1-0.4h-18.1c-6.7,0-13.5,0.1-23.9,0.4
				c-1.1-0.8-1.1-4.2,0-4.9l6.5-1c6.3-1,7.1-1.8,7.1-14.6V31.3c0-12.7-0.8-13.5-7.1-14.7l-3.5-0.7c-1.3-0.8-1.1-4,0.3-4.9
				c6.5,0.3,13.3,0.4,20,0.4h29.5c8.9,0,16.8-0.1,18.6-0.4c0.1,2.2,1.1,12.2,1.8,21.5c-0.6,1.5-3.8,1.8-5.1,0.6
				c-1.5-4.9-3.5-9-5.3-11c-2.6-2.6-6.8-4.3-13.6-4.3h-11.1c-4.6,0-4.6,0.3-4.6,5.4V47.5z"/>
			<path class="st0" d="M223.6,80.1c0,6.5,0.6,11,2.4,13.2c1.8,2.4,4.3,3.5,14.5,3.5c12.6,0,16.5-0.4,24.7-16.5
				c1.1-1.4,4.3-0.8,5.3,0.8c-0.7,7.2-4,18.8-6,22.5c-7.4-0.3-20.7-0.4-32.1-0.4h-18.6c-6.4,0-13.4,0.1-22,0.4
				c-1.3-0.8-1.5-4-0.4-4.9l5.3-0.7c6.3-0.8,7.1-1.9,7.1-14.9V31.4c0-12.9-0.8-14.2-7.1-15l-4-0.6c-1.4-0.8-1.4-4,0.3-4.9
				c7.2,0.3,14.2,0.4,20.9,0.4c6.7,0,13.6-0.1,20.6-0.4c1.1,0.8,1.1,4,0,4.9l-3.6,0.6c-6.3,1-7.1,2.1-7.1,15V80.1z"/>
			<path class="st0" d="M306.7,80.1c0,6.5,0.6,11,2.4,13.2c1.8,2.4,4.3,3.5,14.5,3.5c12.7,0,16.5-0.4,24.7-16.5
				c1.1-1.4,4.3-0.8,5.3,0.8c-0.7,7.2-4,18.8-6,22.5c-7.4-0.3-20.7-0.4-32.1-0.4h-18.6c-6.4,0-13.3,0.1-22,0.4
				c-1.3-0.8-1.5-4-0.4-4.9l5.3-0.7c6.3-0.8,7.1-1.9,7.1-14.9V31.4c0-12.9-0.8-14.2-7.1-15l-4-0.6c-1.4-0.8-1.4-4,0.3-4.9
				c7.2,0.3,14.2,0.4,20.8,0.4c6.7,0,13.6-0.1,20.6-0.4c1.1,0.8,1.1,4,0,4.9l-3.6,0.6c-6.3,1-7.1,2.1-7.1,15V80.1z"/>
			<path class="st0" d="M390.2,83.1c0,12.9,0.8,14,7.1,14.9l5.6,0.7c1,0.8,1,4,0,4.9c-9-0.3-15.8-0.4-22.5-0.4
				c-6.7,0-13.6,0.1-21.8,0.4c-1.1-0.8-1.1-4,0-4.9l4.7-0.7c6.3-1,7.1-1.9,7.1-14.9v-7c0-7-0.1-9.2-3.7-16.5L350,25.4
				c-2.8-5.7-4-7.9-8.9-8.8l-4.7-0.8c-1.3-1.1-1.1-4.4,0.6-4.9c6.3,0.3,11.4,0.4,19.6,0.4c8.5,0,15.6-0.1,20.3-0.4
				c1.2,0.6,1.5,3.8,0.3,4.9l-4.7,1.1c-2.5,0.6-3.3,1.1-3.3,1.3c0,1.1,0.7,3.2,3.6,9.7l6.5,14.9c2.1,4.6,4.7,10.1,6.4,13.6
				c4-6.8,7.9-14.9,11.7-22c5.3-9.9,7.2-14.5,7.2-16.1c0-0.8-1.4-1.4-4.7-1.9l-3.2-0.6c-1.1-0.7-1.2-4.2,0.1-4.9
				c5.6,0.3,10.6,0.4,15.6,0.4c5.3,0,9.6-0.1,13.6-0.4c1.7,0.6,1.7,3.9,0.6,4.9l-3.6,0.7c-2.5,0.4-5.1,1.4-6.7,3.3
				c-2.1,2.6-5.6,7.6-12.2,19.7l-8.8,15.8c-3.6,6.5-5,10-5,17.9V83.1z"/>
		</g>
		<path class="st1" d="M32,68v61.5c0,12.9,0.8,14.2,7.1,15l3.9,0.6c1.1,1,1.1,4,0,4.9c-7.4-0.3-14.3-0.4-21-0.4
			c-6.3,0-13.5,0.1-20.9,0.4c-1.1-0.8-1.1-4,0-4.9l3.9-0.6c6.3-0.8,7.1-2.1,7.1-15V30.9c0-12.9-0.8-14.2-7.1-15l-3.9-0.6
			c-1.5-0.8-1.5-4,0-4.9c7,0.3,13.9,0.4,20.9,0.4c6.7,0,13.6-0.1,21-0.4c1.3,0.8,1.3,4,0,4.9l-3.9,0.6c-6.3,0.8-7.1,2.1-7.1,15v17"
			/>
	</g>
	<g>
		<path class="st2" d="M65.4,136.3l0.2,0.1c4.7-7.1,11.2-14.4,16.2-14.4c2.6,0,3.7,1.4,3.7,3.6c0,1.1-0.5,3.1-1.1,4.6
			c-1.2,3.3-5.9,14.1-6.1,14.6c-0.3,0.7-0.3,1.3,0.1,1.3c1.1,0,4.3-2.2,6.2-4.5c0.9-0.1,1.1,0.4,1.1,0.9c-2.5,4.2-7.7,7.4-11.4,7.4
			c-0.6,0-1.6-0.9-1.6-1.6c0-0.6,0.2-1.1,1.6-4.4c1.4-3.2,3.8-9.7,5.3-13c0.5-1.2,1.4-3.5,1.4-4.8c0-0.8-0.1-1.6-1.1-1.6
			c-1.6,0-5.5,3.3-9.1,7.9c-3.5,4.4-6.2,9.5-10.1,16.8c-0.3,0.6-0.6,0.8-1.2,0.8c-0.7,0-2.5-0.2-1.9-1.7c0.3-0.9,7.3-19.9,7.7-20.8
			c0.3-0.9,0.3-1.5-0.2-1.5c-1.5,0-3.8,1.4-6,3.3c-0.5,0-0.9-0.5-0.8-1c2.5-3.4,6.5-6.1,9.8-6.1c1.6,0,2.3,1.2,1.7,2.7L65.4,136.3z"
			/>
		<path class="st2" d="M110.5,126.1l-5.9,17.4c-0.4,1.3-0.1,1.7,0.5,1.7c1,0,5.4-3.4,7.5-5.9c0.7,0,1.1,0.4,0.9,1.2
			c-3.7,5.5-9.9,9.5-12.7,9.5c-0.9,0-1.8-1-1.8-1.8c0-0.9,0.3-1.8,0.9-3.8l6.2-18.2H101c-0.1-0.7,0.1-1.6,0.7-1.8l5.3-0.9l3.7-6.5
			c0.7-0.4,2-0.3,2.5,0.4l-1.9,6.5h7.2c0.5,0.7,0.1,2-0.8,2.4H110.5z"/>
		<path class="st2" d="M147.6,126c0,5-6.5,8.3-16,11c-0.5,1.1-0.9,3.2-0.9,5.9c0,2.2,1.4,3.8,3.2,3.8c2.4,0,4-1.3,6.9-3.8
			c0.6,0,1,0.5,0.9,1.1c-4,5-7.8,6-10.6,6c-4,0-5.3-3.7-5.3-6.9c0-4.2,2.6-12.2,9.8-17.8c3.4-2.6,6-3.2,7.9-3.2
			C146.1,122,147.6,124.3,147.6,126z M137.1,127.2c-2.6,2.8-4.1,5.8-4.9,7.7c4.4-1.3,6.4-2.6,8.8-4.9c2-1.9,2.6-3.9,2.6-4.5
			c0-0.7-0.3-1.5-1.5-1.5C141.2,124.1,139.5,124.7,137.1,127.2z"/>
		<path class="st2" d="M175.3,122.6c0.7,0.3,1.3,0.6,1.6,0.6c0.6,0,1.9-0.1,3.2-0.4c1.3-0.3,2.5-0.5,3-0.5c0.9,0,1.4,0.7,1.4,1.7
			c0,1.5-0.8,2-1.5,2c-0.7,0-1.6-0.2-2.2-0.3c-0.6-0.2-2-0.4-2.4-0.4c-0.3,0-0.7,0.2-0.6,0.4c0.1,0.5,0.5,1.6,0.5,2.5
			c0,5.3-3.8,10.4-8.4,13.2c-0.7,0.5-3.2,1.3-4.7,1.7c-0.7,0.4-1.5,1.3-1.5,2.3c0,0.8,0.5,2,2.2,3.1c1.5,1.1,4.1,2.5,6.5,4
			c3.8,2.2,5,4.3,5,6.4c0,3.7-5.3,7.9-16.1,7.9c-4.8,0-10.4-1.8-10.4-6.3c0-5,7.7-8.2,11.3-9.3c-1.7-1.1-2.1-2.1-2.1-3
			c0-1.2,2-3.9,3-5.1c-1.3-0.3-4.8-1.5-4.8-5.9c0-3.7,2-8.2,5.3-11.1c3.2-2.7,6.3-4,9.8-4C173.8,122,174.5,122.4,175.3,122.6z
			 M172.9,160.1c0-1.1-0.7-2.6-2.8-4c-2.8-1.8-5.1-3.2-6.1-3.3c-1.7-0.2-4.2,1.1-6.1,2.4c-1.8,1.3-2.5,2.8-2.5,4.3
			c0,3.1,4.4,5.1,8.9,5.1C167.2,164.5,172.9,163.2,172.9,160.1z M167.9,126.6c-2.6,3-5.9,8.8-5.9,12.1c0,1.4,0.9,2.3,2,2.3
			c0.9,0,2.5-0.4,4.4-2.6c3.7-4.4,6-10.2,6-12.3c0-1.4-1-2.2-2-2.2C171.2,123.9,170,124.4,167.9,126.6z"/>
		<path class="st2" d="M202,128.3l-2.8,8.3h0.3c2-3.7,5.2-9,6.9-11.2c1.5-2,3.2-3.4,4.8-3.4c2.3,0,2.6,2.2,2.6,3.2
			c0,1-0.6,2.9-1.4,4c-0.8,1-1.9,1.1-2.1-0.3c-0.3-1.7-0.7-2.6-1.4-2.6c-0.6,0-1.3,0.7-2.3,2c-4,5.2-7.7,13.2-11.2,20.8
			c-0.3,0.5-0.6,0.8-1.1,0.8c-0.7,0-2.6-0.3-2.2-1.7c0.9-2.6,5-14.3,6.8-20.8c0.2-0.7,0.1-1.4-0.5-1.4c-1.7,0-3.5,1.9-4.7,3.4
			c-0.7,0.1-1.1-0.3-1.1-1.1c2.1-3.6,4.6-6.3,7.8-6.3C203.8,122,202.6,126.5,202,128.3z"/>
		<path class="st2" d="M243.7,120.5c1.1-0.5,2.8,0.1,3.2,1c-1,2.4-6.7,17-8.8,23c-0.4,1.1-0.1,1.5,0.5,1.5c1.1,0,3-1.1,6.8-4.4
			c0.5,0,0.9,0.3,0.9,0.9c-2.8,3.7-7.5,7.4-11.1,7.4c-1.5,0-1.9-1.3-1.9-1.8c0-0.5,0.1-1.1,0.7-2.6l2.2-5.9l-0.2-0.1
			c-4.7,5.8-11.4,10.4-14.5,10.4c-1.8,0-2.9-1.8-2.9-3.7c0-1.5,1.5-6.8,5.8-12.8c3.2-4.4,6-7,8.7-8.5c2.6-1.5,4.2-1.9,5.9-1.9
			c0.7,0,1.2,0.2,1.6,0.4c0.3,0.1,1,0.7,1.3,1.4L243.7,120.5z M232.2,128c-4.2,3.8-8.3,12.4-8.3,17.1c0,0.8,0.4,1.2,1,1.2
			c0.7,0,2.6-0.9,6.4-4.3c5-4.7,7.8-10.4,8.8-14.3c-0.5-1.3-1.6-2.4-3.3-2.4C235.3,125.5,234.3,126.2,232.2,128z"/>
		<path class="st2" d="M270.1,126.1l-5.9,17.4c-0.4,1.3-0.1,1.7,0.5,1.7c1,0,5.3-3.4,7.5-5.9c0.7,0,1.1,0.4,0.9,1.2
			c-3.7,5.5-9.9,9.5-12.7,9.5c-0.9,0-1.8-1-1.8-1.8c0-0.9,0.3-1.8,0.9-3.8l6.2-18.2h-5.2c-0.1-0.7,0.1-1.6,0.7-1.8l5.3-0.9l3.7-6.5
			c0.7-0.4,2-0.3,2.5,0.4l-1.9,6.5h7.2c0.5,0.7,0.1,2-0.8,2.4H270.1z"/>
		<path class="st2" d="M294.2,127.5c0.3-0.7,0.3-1.3-0.1-1.3c-0.5,0-2.2,0.8-5.5,3.5c-0.6-0.1-1-0.6-0.9-1.1
			c3.6-4.2,8.7-6.6,10.9-6.6c0.5,0,0.8,0.4,1.1,0.7c0.4,0.4,0.4,1-0.4,2.9l-7.9,18.8c-0.3,0.7-0.3,1.5,0.2,1.5
			c1.1,0,4.6-2.3,6.9-4.9c0.7,0.1,1,0.5,1,1.1c-1,1.9-7.8,7.9-12.3,7.9c-0.3,0-0.7-0.2-1.1-0.6c-0.4-0.5-0.6-1.1-0.3-1.8
			L294.2,127.5z M302.1,110.9c0,2-1.5,4.1-3.4,4.1c-1.7,0-2.3-1.3-2.3-2.4c0-1.5,0.9-4.2,3.5-4.2
			C301.4,108.4,302.1,109.5,302.1,110.9z"/>
		<path class="st2" d="M335.5,130.3c-0.2,3.6-2.1,10-7,15c-4.1,4.2-7.7,4.6-9.4,4.6c-4.2,0-7-3.1-6.6-8.8c0.3-4.1,2.7-10.5,7.2-14.8
			c3.4-3.3,6.4-4.3,9.1-4.3C333.5,122,335.8,125.5,335.5,130.3z M323.5,127.2c-3.8,5.2-6.4,13-6.6,16.5c-0.1,2.3,0.8,4.2,2.7,4.2
			c1.5,0,3.1-0.6,5.2-3.4c2.9-3.9,6-12.6,6.1-16.1c0.1-2-0.3-4.4-2.6-4.4C327,124,325.4,124.6,323.5,127.2z"/>
		<path class="st2" d="M356.4,136.3l0.2,0.1c4.7-7.1,11.2-14.4,16.2-14.4c2.6,0,3.7,1.4,3.7,3.6c0,1.1-0.5,3.1-1.1,4.6
			c-1.2,3.3-5.9,14.1-6.1,14.6c-0.3,0.7-0.3,1.3,0.1,1.3c1.1,0,4.3-2.2,6.2-4.5c0.9-0.1,1.1,0.4,1.1,0.9c-2.5,4.2-7.7,7.4-11.4,7.4
			c-0.6,0-1.6-0.9-1.6-1.6c0-0.6,0.2-1.1,1.6-4.4c1.4-3.2,3.8-9.7,5.4-13c0.5-1.2,1.4-3.5,1.4-4.8c0-0.8-0.1-1.6-1.1-1.6
			c-1.6,0-5.5,3.3-9.1,7.9c-3.5,4.4-6.2,9.5-10.1,16.8c-0.3,0.6-0.6,0.8-1.2,0.8c-0.7,0-2.5-0.2-1.9-1.7c0.3-0.9,7.3-19.9,7.7-20.8
			c0.3-0.9,0.3-1.5-0.2-1.5c-1.5,0-3.8,1.4-6,3.3c-0.5,0-0.9-0.5-0.8-1c2.5-3.4,6.5-6.1,9.8-6.1c1.6,0,2.3,1.2,1.7,2.7L356.4,136.3z
			"/>
		<path class="st2" d="M405.3,125.8c0,1.1-0.7,1.8-1.2,2c-0.5,0.1-0.9,0-1.3-0.5c-1.1-1.1-2-2.1-4-2.1c-1.9,0-2.7,1.6-2.7,2.6
			c0,1.4,0.3,2.8,2.2,6c1.7,2.8,2.6,4.4,2.5,7.3c-0.1,1.8-1,4.2-3.4,6.3c-1.7,1.5-4.2,2.4-6.7,2.4c-2.5,0-4-2-4-3.5
			c0-0.7,0.3-1.4,1-2.2c0.5-0.5,1.3-0.5,1.8,0c0.9,1,2.8,2.6,4.6,2.6c1.6,0,3.2-1.7,3.2-3.8c0-1.1-0.8-3.2-2.4-5.8
			c-1.7-2.8-2.3-5-2.3-6.1c0-2.6,1.1-4.5,4-6.9c1.9-1.7,4-2.2,4.9-2.2C403.7,122,405.3,124.1,405.3,125.8z"/>
	</g>
	<line class="st3" x1="0.2" y1="4" x2="427.8" y2="4"/>
	<path class="st4" d="M155.7,157.5"/>
	<path class="st4" d="M150.7,157.5"/>
</g>
<path class="st5" d="M149.5,158.8H1.8v-2.5h149.3C150.5,156.8,149.5,158.3,149.5,158.8z"/>
<path class="st5" d="M156.8,157.5c-0.2,0.4-0.2,0.9-0.3,1.3c4.9,0,14.8,0,14.8,0c0.1-0.1-0.5-1-0.8-1.3c-0.3-0.3-0.7-0.9-1.3-1.1
	c-3.9,0-7.9,0-11.8,0"/>
<path class="st5" d="M405.3,158.8c-75.7,0-151.4,0-227.2,0c0-0.4-0.2-1.2-0.2-1.2s-0.3-0.8-0.6-1.2h228V158.8z"/>
<path class="st5" d="M405.3,112.9c-34.1,0-68.2,0-102.3,0c0.4-0.9,0.3-2.4,0.3-2.4h102V112.9z"/>
<path class="st5" d="M295.1,112.9H57.6v-2.4c79.3,0,238,0,238,0S295.1,111.5,295.1,112.9z"/>
</svg>
